<svg width="62" height="70" viewBox="0 0 62 70" fill="none" xmlns="http://www.w3.org/2000/svg">
<path d="M27.3 68C22.2 64.9 23.6 61.8 29 64C31.4 65 32.3 64.9 34.2 63.6C37.2 61.5 38 61.6 38 64.3C38 65.7 36.9 67.1 34.9 68.3C31.1 70.4 31.2 70.4 27.3 68Z" fill="#8CE9EF"/>
<path d="M53.5999 56.3C52.3999 55.1 52.9999 52 54.4999 52C57.1999 52 57.9999 48.1 57.9999 34.1V20.1L54.8999 17.9C52.1999 16 51.9999 15.6 53.2999 14.2C54.6999 12.9 55.1999 13 58.3999 14.9L61.9999 17.2V34.5V51.9L59.2999 53.8C55.0999 56.7 54.2999 57 53.5999 56.3Z" fill="#8CE9EF"/>
<path d="M3.2 53.9C0.299997 52 0 51.3 0 46.9C0 42.7 0.3 42 2 42C3.7 42 4 42.7 4 46C4 48.9 4.4 50 5.5 50C7.5 50 8.4 52.4 7.3 54.4C6.6 55.7 6 55.6 3.2 53.9Z" fill="#8CE9EF"/>
<path d="M27.9999 54.5C27.1999 53.5 26.9999 52 27.4999 50.3C28.9999 45 29.1999 25.7 27.8999 21.7C26.9999 18.9 26.8999 17.3 27.6999 16.2C29.2999 13.6 32.5999 13.6 34.3999 16.1C35.7999 18.1 35.7999 18.7 34.4999 20.7C32.3999 23.9 32.3999 46.6 34.4999 49.4C35.7999 51.2 35.7999 51.6 33.7999 53.7C31.2999 56.4 29.6999 56.6 27.9999 54.5ZM32.4999 51C32.4999 50.2 31.6999 49.4 30.7999 49.2C29.4999 49 28.9999 49.5 28.9999 51C28.9999 52.5 29.4999 53 30.7999 52.8C31.6999 52.6 32.4999 51.8 32.4999 51ZM32.2999 17.4C31.9999 16.6 31.3999 16 30.9999 16C29.5999 16 28.7999 18 29.3999 19.7C29.8999 20.9 30.2999 21 31.4999 20C32.1999 19.4 32.5999 18.2 32.2999 17.4Z" fill="#8CE9EF"/>
<path d="M19.9 46.1C17.6 44.2 17.6 44.2 19.3 40.6C21.5 36 21.5 32.6 19.3 28.9C17.6 26.1 17.6 25.9 19.7 23.8C21.6 21.9 22.3 21.8 24.5 22.8C27.3 24.1 28 28.4 25.5 29.4C23.3 30.2 23.4 39.6 25.6 40.4C27.7 41.2 27 44.9 24.4 46.7C22.5 47.9 22 47.8 19.9 46.1ZM24.5 43C24.5 42.2 23.7 41.4 22.8 41.2C21.5 41 21 41.5 21 43C21 44.5 21.5 45 22.8 44.8C23.7 44.6 24.5 43.8 24.5 43ZM23.9 28.1C25.5 27.1 24.5 25 22.4 25C21.6 25 21 25.9 21 27C21 29.2 21.7 29.5 23.9 28.1Z" fill="#8CE9EF"/>
<path d="M36.5999 46.4C34.7999 44.7 34.4999 40.4 35.9999 39.5C36.5999 39.2 36.9999 36.9 36.9999 34.5C36.9999 32.1 36.5999 29.8 35.9999 29.5C34.5999 28.6 34.6999 24.7 36.1999 23.2C37.8999 21.5 39.6999 21.7 42.0999 24.1C43.9999 26 44.0999 26.3 42.3999 28.7C40.2999 32 40.1999 38.1 42.2999 41.1C43.8999 43.3 43.7999 43.5 41.7999 45.7C39.2999 48.4 38.5999 48.5 36.5999 46.4ZM40.5999 43.9C41.5999 42.2 39.2999 40.3 37.8999 41.7C36.6999 42.9 37.4999 45 38.9999 45C39.4999 45 40.1999 44.5 40.5999 43.9ZM40.9999 27C40.9999 26.5 40.4999 25.8 39.8999 25.4C38.4999 24.6 36.5999 26.5 37.3999 27.9C38.0999 29 40.9999 28.3 40.9999 27Z" fill="#8CE9EF"/>
<path d="M10.8001 36.5C9.90009 34.4 10.0001 33.7 11.5001 32C13.8001 29.5 15.2001 29.5 17.5001 32C19.0001 33.7 19.1001 34.4 18.2001 36.5C16.6001 39.9 12.4001 39.9 10.8001 36.5ZM15.8001 34.8C15.6001 33.5 15.1001 32.5 14.5001 32.5C14.0001 32.5 13.4001 33.5 13.2001 34.8C13.0001 36.3 13.4001 37 14.5001 37C15.6001 37 16.0001 36.3 15.8001 34.8Z" fill="#8CE9EF"/>
<path d="M44.2 37.8C42.4 36 42.8 32.2 44.9 31C47.4 29.7 47.6 29.7 49.4 31.6C51.2 33.3 51.5 36 50 36C49.5 36 49 35.3 49 34.5C49 32.7 46.4 32.5 45.4 34.2C45 34.8 45.4 35.8 46.3 36.5C47.3 37.2 48 38 48 38.4C48 39.4 45.5 39.1 44.2 37.8Z" fill="#8CE9EF"/>
<path d="M0 19.5C0 15.6 0.3 14.9 3 13.5C4.7 12.6 6.5 12.2 7 12.5C8.7 13.6 8.1 16.2 6 16.7C4.5 17.1 4 18.1 4 20.6C4 23.3 3.6 24 2 24C0.3 24 0 23.3 0 19.5Z" fill="#8CE9EF"/>
<path d="M24.4 5.8C23.5 4.4 28.4 0 30.8 0C33 0 39 3.7 39 5C39 6.9 36 7.3 33.6 5.7C31.6 4.3 31 4.3 29.4 5.5C27.1 7.3 25.3 7.4 24.4 5.8Z" fill="#8CE9EF"/>
<path d="M35.3 5.50001C35 4.60001 35 3.70001 35.3 3.40001C36.2 2.50001 37.9999 4.00001 37.9999 5.60001C37.9999 7.50001 36.1 7.40001 35.3 5.50001Z" fill="#68F1F9"/>
<path d="M53.6001 56.3C52.4001 55 53.1001 53 55.1001 51.9C56.6001 51.1 57.0001 51.1 56.6001 51.9C56.2001 52.5 56.4001 53 56.9001 53C57.5001 53 58.0001 53.3 58.0001 53.8C58.0001 54.9 54.3001 57 53.6001 56.3Z" fill="#B0F6FA"/>
<path d="M0 34.1C0 18.5 0.199997 16.1 1.7 14.9C2.8 13.9 3.10001 13.9 2.60001 14.8C2.20001 15.4 2.3 16 2.8 16C4.2 16 4.29999 42 2.89999 47.4C2.29999 49.9 1.39999 52 0.899994 52C0.399994 52 0 44 0 34.1Z" fill="#B0F6FA"/>
<path d="M44.2 37C42.4 34.1 42.7001 33.4 45.0001 35.5C47.3001 37.6 48.6 36.8 49.2 33L49.6001 30.5L50.4 33.3C51.8 38.2 46.9 41.2 44.2 37Z" fill="#B0F6FA"/>
<path d="M11.3999 36.6C10.2999 33.8 11.4999 31.5 13.9999 31.3L16.4999 31L14.0999 32C12.2999 32.8 11.8999 33.6 12.1999 35.5C12.7999 38.2 12.2999 38.8 11.3999 36.6Z" fill="#B0F6FA"/>
</svg>
